# This file uses centimeters as units for non-parametric coordinates.

mtllib Block1.mtl
g default
v -98.828545 -48.828545 96.000397
v -96.000397 -50.000000 96.000397
v -96.000397 -48.828545 98.828545
v -96.000397 -46.000401 100.000000
v -98.828545 -46.000401 98.828545
v -100.000000 -46.000401 96.000397
v 98.828545 -48.828545 96.000397
v 100.000000 -46.000401 96.000397
v 98.828545 -46.000401 98.828545
v 96.000397 -46.000401 100.000000
v 96.000397 -48.828545 98.828545
v 96.000397 -50.000000 96.000397
v -98.828545 48.828545 96.000397
v -100.000000 46.000401 96.000397
v -98.828545 46.000401 98.828545
v -96.000397 46.000401 100.000000
v -96.000397 48.828545 98.828545
v -96.000397 50.000000 96.000397
v 98.828545 48.828545 96.000397
v 96.000397 50.000000 96.000397
v 96.000397 48.828545 98.828545
v 96.000397 46.000401 100.000000
v 98.828545 46.000401 98.828545
v 100.000000 46.000401 96.000397
v -98.828545 46.000401 -98.828545
v -100.000000 46.000401 -96.000397
v -98.828545 48.828545 -96.000397
v -96.000397 50.000000 -96.000397
v -96.000397 48.828545 -98.828545
v -96.000397 46.000401 -100.000000
v 98.828545 46.000401 -98.828545
v 96.000397 46.000401 -100.000000
v 96.000397 48.828545 -98.828545
v 96.000397 50.000000 -96.000397
v 98.828545 48.828545 -96.000397
v 100.000000 46.000401 -96.000397
v -98.828545 -48.828545 -96.000397
v -100.000000 -46.000401 -96.000397
v -98.828545 -46.000401 -98.828545
v -96.000397 -46.000401 -100.000000
v -96.000397 -48.828545 -98.828545
v -96.000397 -50.000000 -96.000397
v 98.828545 -48.828545 -96.000397
v 96.000397 -50.000000 -96.000397
v 96.000397 -48.828545 -98.828545
v 96.000397 -46.000401 -100.000000
v 98.828545 -46.000401 -98.828545
v 100.000000 -46.000401 -96.000397
v -98.308762 -48.308765 98.308762
v 98.308762 -48.308765 98.308762
v -98.308762 48.308765 98.308762
v 98.308762 48.308765 98.308762
v -98.308762 48.308765 -98.308762
v 98.308762 48.308765 -98.308762
v -98.308762 -48.308765 -98.308762
v 98.308762 -48.308765 -98.308762
vt 0.361838 0.960058
vt 0.364727 0.051480
vt 0.659757 0.963497
vt 0.672125 0.051639
vt 0.364798 0.194248
vt 0.662744 0.194363
vt 0.672179 0.194428
vt 0.056805 0.051675
vt 0.364550 0.501496
vt 0.662612 0.502284
vt 0.970051 0.194133
vt 0.969960 0.051413
vt 0.662079 0.664599
vt 0.364095 0.653369
vt 0.662127 0.655085
vt 0.662701 0.051631
vt 0.364759 0.203705
vt 0.662791 0.203842
vt 0.364533 0.510941
vt 0.662596 0.511788
vt 0.364052 0.662803
vt 0.355274 0.051474
vt 0.355365 0.194354
vt 0.056957 0.194692
vt 0.357092 0.960004
vt 0.355293 0.046705
vt 0.364706 0.046719
vt 0.359731 0.964983
vt 0.360000 0.051481
vt 0.672099 0.046881
vt 0.664522 0.963544
vt 0.667413 0.051639
vt 0.659714 0.968279
vt 0.662726 0.046871
vt 0.355391 0.199133
vt 0.359990 0.203682
vt 0.360090 0.194315
vt 0.364773 0.198972
vt 0.667571 0.203823
vt 0.672164 0.199199
vt 0.662773 0.199099
vt 0.667454 0.194408
vt 0.052200 0.194718
vt 0.359772 0.510881
vt 0.359791 0.501515
vt 0.056953 0.199450
vt 0.364543 0.506219
vt 0.667386 0.511756
vt 0.974797 0.194150
vt 0.662602 0.507036
vt 0.970065 0.198881
vt 0.667380 0.502310
vt 0.056792 0.046916
vt 0.359304 0.662745
vt 0.359334 0.653400
vt 0.052046 0.051660
vt 0.364076 0.658086
vt 0.666855 0.664613
vt 0.969966 0.046665
vt 0.662102 0.659842
vt 0.974707 0.051391
vt 0.666916 0.655148
vt 0.356769 0.963306
vt 0.359998 0.047466
vt 0.667413 0.047633
vt 0.663756 0.967585
vt 0.360330 0.198767
vt 0.667229 0.198872
vt 0.052939 0.198736
vt 0.360539 0.506203
vt 0.666629 0.507031
vt 0.974061 0.198142
vt 0.052760 0.047629
vt 0.360079 0.658072
vt 0.666134 0.659870
vt 0.973983 0.047377
vn -0.005983 -0.999964 0.005983
vn -0.382265 -0.924045 0.003727
vn -0.382265 -0.924045 -0.003727
vn -0.005983 -0.999964 -0.005983
vn -0.924044 -0.382267 0.003727
vn -0.999907 -0.012292 0.005951
vn -0.999907 -0.012292 -0.005951
vn -0.924044 -0.382267 -0.003727
vn -0.005951 -0.012292 0.999907
vn -0.003727 -0.382265 0.924045
vn 0.003727 -0.382265 0.924045
vn 0.005951 -0.012292 0.999907
vn -0.003727 -0.924045 0.382265
vn 0.005983 -0.999964 0.005983
vn 0.003727 -0.924045 0.382265
vn -0.924208 -0.007687 0.381813
vn -0.924208 0.007687 0.381813
vn -0.999907 0.012292 0.005951
vn -0.381813 -0.007687 0.924208
vn -0.005951 0.012292 0.999907
vn -0.381813 0.007687 0.924208
vn 0.999907 -0.012292 0.005951
vn 0.924044 -0.382267 0.003727
vn 0.924044 -0.382267 -0.003727
vn 0.999907 -0.012292 -0.005951
vn 0.382265 -0.924045 0.003727
vn 0.005983 -0.999964 -0.005983
vn 0.382265 -0.924045 -0.003727
vn 0.381813 -0.007687 0.924208
vn 0.381813 0.007687 0.924208
vn 0.005951 0.012292 0.999907
vn 0.924208 -0.007687 0.381813
vn 0.999907 0.012292 0.005951
vn 0.924208 0.007687 0.381813
vn -0.924044 0.382267 0.003727
vn -0.924044 0.382267 -0.003727
vn -0.999907 0.012292 -0.005951
vn -0.382265 0.924045 0.003727
vn -0.005983 0.999964 0.005983
vn -0.005983 0.999964 -0.005983
vn -0.382265 0.924045 -0.003727
vn -0.003727 0.924045 0.382265
vn 0.003727 0.924045 0.382265
vn 0.005983 0.999964 0.005983
vn -0.003727 0.382265 0.924045
vn 0.003727 0.382265 0.924045
vn 0.382265 0.924045 0.003727
vn 0.382265 0.924045 -0.003727
vn 0.005983 0.999964 -0.005983
vn 0.924044 0.382267 0.003727
vn 0.999907 0.012292 -0.005951
vn 0.924044 0.382267 -0.003727
vn -0.924208 0.007687 -0.381813
vn -0.924208 -0.007687 -0.381813
vn -0.381813 0.007687 -0.924208
vn -0.005951 0.012292 -0.999907
vn -0.005951 -0.012292 -0.999907
vn -0.381813 -0.007687 -0.924208
vn -0.003727 0.382265 -0.924045
vn 0.003727 0.382265 -0.924045
vn 0.005951 0.012292 -0.999907
vn -0.003727 0.924045 -0.382265
vn 0.003727 0.924045 -0.382265
vn 0.381813 0.007687 -0.924208
vn 0.381813 -0.007687 -0.924208
vn 0.005951 -0.012292 -0.999907
vn 0.924208 0.007687 -0.381813
vn 0.924208 -0.007687 -0.381813
vn -0.003727 -0.924045 -0.382265
vn 0.003727 -0.924045 -0.382265
vn -0.003727 -0.382265 -0.924045
vn 0.003727 -0.382265 -0.924045
vn -0.887918 -0.325271 0.325270
vn -0.325270 -0.887919 0.325269
vn -0.325272 -0.325269 0.887918
vn 0.325269 -0.887919 0.325269
vn 0.887918 -0.325271 0.325270
vn 0.325272 -0.325269 0.887918
vn -0.325269 0.887919 0.325269
vn -0.887918 0.325271 0.325270
vn -0.325272 0.325269 0.887918
vn 0.887918 0.325271 0.325270
vn 0.325270 0.887919 0.325269
vn 0.325272 0.325269 0.887918
vn -0.325272 0.325269 -0.887918
vn -0.887918 0.325271 -0.325270
vn -0.325270 0.887919 -0.325269
vn 0.887918 0.325271 -0.325270
vn 0.325272 0.325269 -0.887918
vn 0.325269 0.887919 -0.325269
vn -0.325269 -0.887919 -0.325269
vn -0.887918 -0.325271 -0.325270
vn -0.325272 -0.325269 -0.887918
vn 0.887918 -0.325271 -0.325270
vn 0.325270 -0.887919 -0.325269
vn 0.325272 -0.325269 -0.887918
s 1
g pCube1
usemtl initialShadingGroup
f 2/1/1 1/25/2 37/54/3 42/21/4
s 2
f 1/26/5 6/22/6 38/8/7 37/53/8
s 3
f 4/2/9 3/27/10 11/34/11 10/16/12
s 1
f 3/28/13 2/1/1 12/3/14 11/33/15
s 2
f 6/22/6 5/29/16 15/37/17 14/23/18
s 3
f 5/29/19 4/2/9 16/5/20 15/37/21
s 4
f 8/4/22 7/30/23 43/59/24 48/12/25
s 1
f 7/31/26 12/3/14 44/13/27 43/58/28
s 3
f 10/16/12 9/32/29 23/42/30 22/6/31
s 4
f 9/32/32 8/4/22 24/7/33 23/42/34
s 2
f 14/23/18 13/35/35 27/46/36 26/24/37
s 5
f 13/36/38 18/17/39 28/9/40 27/45/41
f 18/17/39 17/38/42 21/41/43 20/18/44
s 3
f 17/38/45 16/5/20 22/6/31 21/41/46
s 5
f 20/18/44 19/39/47 35/52/48 34/10/49
s 4
f 19/40/50 24/7/33 36/11/51 35/51/52
s 2
f 26/24/37 25/43/53 39/56/54 38/8/7
s 6
f 25/44/55 30/19/56 40/14/57 39/55/58
f 30/19/56 29/47/59 33/50/60 32/20/61
s 5
f 29/47/62 28/9/40 34/10/49 33/50/63
s 6
f 32/20/61 31/48/64 47/62/65 46/15/66
s 4
f 31/49/67 36/11/51 48/12/25 47/61/68
s 1
f 42/21/4 41/57/69 45/60/70 44/13/27
s 6
f 41/57/71 40/14/57 46/15/66 45/60/72
s 3
f 4/2/9 10/16/12 22/6/31 16/5/20
s 5
f 18/17/39 20/18/44 34/10/49 28/9/40
s 6
f 30/19/56 32/20/61 46/15/66 40/14/57
s 1
f 42/21/4 44/13/27 12/3/14 2/1/1
s 4
f 8/4/22 48/12/25 36/11/51 24/7/33
s 2
f 38/8/7 6/22/6 14/23/18 26/24/37
f 5/29/16 6/22/6 1/26/5 49/64/73
s 1
f 1/25/2 2/1/1 3/28/13 49/63/74
s 3
f 3/27/10 4/2/9 5/29/19 49/64/75
s 1
f 11/33/15 12/3/14 7/31/26 50/66/76
s 4
f 7/30/23 8/4/22 9/32/32 50/65/77
s 3
f 9/32/29 10/16/12 11/34/11 50/65/78
s 5
f 17/38/42 18/17/39 13/36/38 51/67/79
s 2
f 13/35/35 14/23/18 15/37/17 51/67/80
s 3
f 15/37/21 16/5/20 17/38/45 51/67/81
s 4
f 23/42/34 24/7/33 19/40/50 52/68/82
s 5
f 19/39/47 20/18/44 21/41/43 52/68/83
s 3
f 21/41/46 22/6/31 23/42/30 52/68/84
s 6
f 29/47/59 30/19/56 25/44/55 53/70/85
s 2
f 25/43/53 26/24/37 27/46/36 53/69/86
s 5
f 27/45/41 28/9/40 29/47/62 53/70/87
s 4
f 35/51/52 36/11/51 31/49/67 54/72/88
s 6
f 31/48/64 32/20/61 33/50/60 54/71/89
s 5
f 33/50/63 34/10/49 35/52/48 54/71/90
s 1
f 41/57/69 42/21/4 37/54/3 55/74/91
s 2
f 37/53/8 38/8/7 39/56/54 55/73/92
s 6
f 39/55/58 40/14/57 41/57/71 55/74/93
s 4
f 47/61/68 48/12/25 43/59/24 56/76/94
s 1
f 43/58/28 44/13/27 45/60/70 56/75/95
s 6
f 45/60/72 46/15/66 47/62/65 56/75/96
